<?xml version="1.0" standalone="no"?>
<!DOCTYPE svg PUBLIC "-//W3C//DTD SVG 20010904//EN"
 "http://www.w3.org/TR/2001/REC-SVG-20010904/DTD/svg10.dtd">
<svg version="1.0" xmlns="http://www.w3.org/2000/svg"
 width="1024.000000pt" height="1024.000000pt" viewBox="0 0 1024.000000 1024.000000"
 preserveAspectRatio="xMidYMid meet">

<g transform="translate(0.000000,1024.000000) scale(0.100000,-0.100000)"
fill="#000FF" stroke="none">
<path d="M4170 8801 c-71 -22 -133 -75 -168 -146 -10 -22 -36 -92 -57 -155
-50 -151 -112 -297 -179 -417 -30 -54 -69 -133 -87 -177 -28 -67 -30 -79 -18
-87 45 -25 140 -102 163 -131 l26 -34 -29 -75 c-50 -128 -96 -220 -164 -330
-56 -90 -137 -240 -137 -252 0 -3 19 0 43 4 23 5 115 12 204 16 l163 6 51 106
c77 160 185 399 224 496 l35 87 -84 93 -83 94 47 93 c25 51 75 168 110 261
l65 167 884 -2 885 -3 48 -135 c69 -192 95 -253 139 -321 l39 -59 -34 -48
c-18 -26 -43 -66 -55 -90 l-22 -43 45 -112 c110 -274 384 -1010 541 -1457 51
-146 157 -443 235 -660 78 -217 193 -541 255 -720 610 -1755 617 -1775 694
-1893 71 -108 140 -161 245 -188 l46 -11 -2 -452 -3 -451 -931 -3 -932 -2 -7
236 c-9 300 -7 326 43 417 l40 73 -75 199 c-42 110 -150 389 -240 620 -91 231
-176 450 -190 488 l-25 67 -723 0 -722 0 -13 -27 c-29 -65 -417 -1041 -469
-1182 l-56 -155 40 -75 40 -76 3 -292 3 -293 -940 0 -941 0 0 454 0 454 34 6
c61 12 154 65 197 114 58 66 86 127 264 567 86 215 161 397 166 407 7 13 -5
25 -65 62 -41 25 -105 75 -142 110 l-69 63 -41 -101 c-23 -55 -103 -257 -179
-449 -75 -191 -151 -368 -168 -394 -59 -86 -100 -102 -264 -103 l-103 0 0
-775 0 -775 1138 2 1137 3 58 23 c86 35 177 125 225 220 l37 76 0 345 0 346
-34 68 c-30 60 -33 70 -21 95 14 31 158 375 171 411 9 23 12 21 87 -51 43 -41
99 -89 125 -106 84 -58 209 -112 308 -132 301 -62 598 27 817 246 69 69 74 72
82 51 30 -67 163 -397 172 -422 9 -27 6 -36 -15 -68 -55 -81 -58 -106 -55
-463 l3 -329 28 -58 c44 -89 125 -170 215 -214 l76 -38 1133 -3 1133 -2 0 774
0 774 -112 4 c-132 5 -175 21 -231 90 -53 66 -76 119 -187 438 -119 341 -275
784 -419 1189 -77 217 -98 287 -91 301 6 10 10 40 10 65 0 38 3 46 15 41 8 -3
22 -3 30 0 21 9 72 93 111 184 l34 81 -78 37 c-77 37 -77 37 -42 42 53 8 62
45 27 114 -15 29 -27 58 -27 64 0 6 30 13 68 17 37 3 74 7 82 8 23 3 24 66 5
195 l-17 112 -42 0 c-22 0 -61 -5 -85 -11 -53 -12 -75 5 -40 32 20 15 20 17 4
79 -9 35 -17 72 -18 83 -1 16 -8 18 -49 15 -35 -2 -48 1 -48 10 0 12 39 52 99
100 l25 19 -39 49 c-90 114 -185 199 -185 165 0 -10 -115 -101 -129 -101 -16
0 -84 33 -101 49 -13 13 -13 14 2 8 13 -5 19 0 23 16 16 72 25 113 25 123 0 7
-20 17 -45 23 -42 10 -44 13 -39 39 8 37 -2 44 -115 80 l-95 30 -53 143 c-30
79 -111 285 -180 458 l-125 315 18 35 c11 19 47 57 81 84 l61 49 -19 45 c-10
25 -53 107 -94 182 -86 157 -116 226 -191 434 -60 169 -90 225 -139 263 -73
55 -46 54 -1104 53 -537 0 -987 -4 -1001 -8z m2986 -2617 c206 -123 322 -374
285 -614 -11 -70 -46 -170 -60 -170 -4 0 -46 107 -95 238 -49 130 -117 312
-152 404 -35 92 -64 169 -64 172 0 14 30 3 86 -30z m-1899 -2480 c100 -48 123
-179 46 -265 -102 -113 -284 -38 -283 118 1 114 133 196 237 147z m-486 -177
c3 -58 11 -87 38 -142 86 -174 256 -264 444 -235 193 30 324 168 351 371 l10
79 78 0 78 0 0 -32 c0 -100 -79 -291 -155 -376 -54 -60 -157 -131 -235 -163
-68 -27 -228 -37 -313 -19 -144 30 -313 160 -385 297 -36 69 -72 196 -72 255
l0 38 79 0 79 0 3 -73z"/>
<path d="M4421 8138 c-13 -35 -39 -96 -57 -137 l-34 -73 39 -39 c44 -45 66
-108 59 -173 -3 -24 -40 -131 -83 -237 -77 -192 -265 -612 -289 -644 -11 -15
-24 -15 -140 -4 -466 43 -968 -164 -1300 -536 -192 -216 -313 -458 -378 -758
-19 -88 -22 -132 -22 -312 0 -178 3 -225 22 -310 32 -147 66 -245 132 -380
127 -261 321 -472 571 -619 l97 -57 -45 -112 c-25 -62 -112 -285 -195 -497
-82 -211 -167 -422 -188 -467 -51 -109 -120 -182 -217 -230 l-73 -36 0 -294 0
-293 770 0 770 0 0 179 0 179 -35 57 c-65 109 -62 146 33 395 116 305 421
1090 431 1108 5 10 45 32 89 50 44 18 117 57 162 87 l81 55 701 -2 700 -3 83
-215 c45 -118 138 -357 205 -530 243 -627 282 -734 287 -791 6 -63 -7 -115
-43 -171 -23 -36 -24 -45 -24 -218 l0 -180 775 0 775 0 0 295 c0 273 -1 296
-17 302 -144 48 -252 155 -333 328 -57 123 -77 176 -189 493 -66 185 -198 560
-294 832 -97 272 -228 644 -292 825 -64 182 -139 393 -167 470 -27 77 -103
293 -168 480 -65 187 -145 417 -178 510 -220 618 -280 785 -352 985 -99 273
-100 276 -100 323 0 41 22 101 46 128 13 14 10 26 -30 110 -24 52 -51 115 -61
142 -9 26 -21 47 -26 47 -20 0 -109 -51 -145 -82 -75 -66 -114 -159 -114 -273
0 -76 16 -137 91 -350 34 -93 107 -300 164 -460 56 -159 151 -425 210 -590
145 -407 277 -783 395 -1125 195 -568 424 -1214 650 -1840 45 -124 100 -277
122 -340 105 -296 211 -496 336 -631 58 -62 89 -86 146 -114 40 -19 81 -35 90
-35 14 0 16 -13 16 -90 l0 -90 -570 0 -570 0 0 74 c0 66 2 75 20 81 74 23 130
123 130 230 0 94 -16 145 -163 525 -69 179 -176 460 -237 625 -62 165 -125
324 -140 355 -89 175 -229 288 -395 319 -62 12 -1330 16 -1359 5 -9 -3 -14
-10 -11 -14 3 -5 -41 -48 -97 -95 l-103 -87 -82 87 -82 86 -38 -19 c-51 -26
-156 -58 -219 -67 l-51 -6 -7 -67 c-3 -37 -6 -84 -6 -104 l0 -38 -119 0 c-137
0 -125 -11 -137 126 l-7 81 -84 21 c-46 12 -116 36 -155 54 -61 28 -72 30 -82
17 -30 -41 -139 -169 -144 -169 -8 0 -135 87 -171 117 l-34 29 50 70 c28 38
58 81 67 96 l18 27 -56 65 c-31 36 -67 84 -82 106 -15 22 -31 40 -36 40 -5 0
-30 -11 -57 -24 -26 -14 -78 -35 -116 -47 -79 -25 -71 -31 -115 91 -43 122
-43 130 5 146 22 8 70 29 108 46 66 31 69 33 63 62 -3 17 -11 74 -18 126 -6
52 -12 96 -13 98 -1 1 -55 9 -121 18 -65 8 -120 17 -121 18 -2 1 4 58 14 126
l16 123 86 -7 c47 -3 102 -9 121 -12 l37 -6 28 78 c37 104 96 219 150 291 l44
58 -66 66 c-55 56 -63 69 -55 85 6 11 47 55 91 99 l81 79 47 -45 c27 -24 60
-55 74 -68 l27 -23 39 25 c93 59 189 101 291 127 l43 11 -7 103 -7 104 132 7
c73 4 134 5 137 2 3 -3 8 -50 11 -105 l6 -99 78 -12 c43 -7 111 -23 150 -36
40 -14 76 -25 80 -25 5 0 29 35 54 78 24 42 49 83 54 91 7 10 35 -5 124 -68
l115 -82 -54 -76 c-30 -42 -53 -79 -52 -84 5 -13 162 -189 169 -189 3 0 44 17
90 39 135 62 119 66 183 -48 31 -54 56 -102 56 -105 0 -3 -45 -28 -101 -57
-80 -41 -99 -55 -93 -68 4 -9 17 -48 28 -87 l21 -72 65 -6 c36 -3 90 -6 121
-6 38 0 59 -4 62 -13 3 -8 8 -59 12 -114 l7 -101 -120 -7 -121 -8 -6 -56 c-5
-43 -30 -199 -39 -242 0 -4 284 -10 632 -13 349 -3 638 -9 643 -12 19 -11 7
32 -62 224 -39 108 -131 366 -204 572 -73 206 -204 573 -290 815 -87 242 -186
523 -220 625 -35 102 -68 198 -74 214 l-12 30 -25 -54 c-14 -30 -45 -111 -70
-180 -113 -311 -224 -592 -266 -673 l-31 -57 -28 22 c-129 106 -207 163 -283
206 -49 28 -93 53 -97 54 -5 2 41 125 102 273 139 342 221 552 247 635 58 190
25 356 -95 472 -45 44 -140 98 -173 98 -9 0 -24 -24 -39 -62z m763 -1714 c117
-292 436 -1191 436 -1228 0 -3 -54 -6 -120 -6 -66 0 -120 3 -120 7 0 4 12 19
27 35 l26 28 -53 157 c-149 442 -264 750 -315 840 l-23 42 27 68 c15 37 36 92
46 121 11 28 20 52 21 52 1 0 23 -52 48 -116z m-1694 -2631 c36 -8 144 -17
241 -20 l177 -6 -30 -71 c-89 -216 -342 -887 -358 -952 -22 -86 -26 -207 -9
-265 16 -53 61 -103 114 -129 l45 -22 0 -74 0 -74 -580 0 -580 0 0 85 c0 84 0
85 28 91 54 13 160 76 212 127 110 107 156 198 356 693 62 155 147 363 190
463 75 179 78 182 103 176 14 -4 55 -14 91 -22z"/>
<path d="M2803 7463 c-97 -34 -161 -160 -134 -261 55 -207 327 -231 417 -38
42 91 28 172 -44 246 -67 69 -146 86 -239 53z"/>
<path d="M7386 7465 c-49 -17 -103 -68 -127 -120 -72 -155 77 -339 250 -310
63 10 126 58 155 117 46 91 30 184 -44 259 -64 67 -146 86 -234 54z"/>
<path d="M3740 6124 c-14 -2 -52 -9 -85 -15 -249 -45 -477 -229 -596 -483 -64
-138 -82 -219 -82 -376 0 -120 3 -144 28 -220 98 -302 304 -504 590 -581 107
-29 297 -31 405 -5 104 25 262 104 342 170 131 109 232 265 280 431 31 109 31
312 0 428 -25 89 -85 224 -133 294 -111 162 -284 285 -472 334 -71 19 -228 32
-277 23z m253 -248 c287 -91 467 -407 403 -706 -41 -194 -155 -340 -328 -424
-99 -48 -175 -66 -272 -66 -327 1 -591 273 -590 610 0 227 138 451 339 551 90
44 172 59 295 54 58 -2 127 -11 153 -19z"/>
<path d="M3703 5705 c-81 -22 -132 -53 -188 -109 -229 -236 -122 -621 195
-702 202 -51 428 81 491 288 78 255 -105 520 -367 534 -51 3 -97 -1 -131 -11z
m191 -295 c69 -61 70 -143 2 -209 -60 -58 -159 -51 -201 13 -44 67 -36 142 19
194 31 28 43 32 91 32 46 0 59 -4 89 -30z"/>
<path d="M5106 2396 c-142 -53 -191 -233 -94 -350 42 -51 98 -76 174 -76 280
-1 290 419 10 437 -28 2 -68 -3 -90 -11z"/>
</g>
</svg>
